<svg id="_x33_0" enable-background="new 0 0 64 64" height="512" viewBox="0 0 64 64" width="512" xmlns="http://www.w3.org/2000/svg" xmlns:xlink="http://www.w3.org/1999/xlink"><linearGradient id="SVGID_1_" gradientUnits="userSpaceOnUse" x1="32" x2="32" y1="63" y2="1"><stop offset="0" stop-color="#9f2fff"/><stop offset="1" stop-color="#0bb1d3"/></linearGradient><path d="m24 20c-1.654 0-3 1.346-3 3s1.346 3 3 3 3-1.346 3-3-1.346-3-3-3zm0 4c-.551 0-1-.449-1-1s.449-1 1-1 1 .449 1 1-.449 1-1 1zm0-8c-3.86 0-7 3.14-7 7s3.14 7 7 7 7-3.14 7-7-3.14-7-7-7zm0 12c-2.757 0-5-2.243-5-5s2.243-5 5-5 5 2.243 5 5-2.243 5-5 5zm32-12c-.007 0-.014 0-.021 0-.938-1.247-2.413-2-3.979-2-2.757 0-5 2.243-5 5v1h-2.163c-1.224-10.724-10.381-19-21.28-19-10.232 0-18.557 8.093-18.557 18.041 0 4.663-1.424 7.114-2.569 9.084-.768 1.322-1.431 2.464-1.431 3.875 0 1.945 1.322 2.564 2.197 2.974 1.047.49 1.803.844 1.803 3.026v3.597c0 4.081 3.319 7.403 7.399 7.403h.004c1.623 0 3.184-.082 4.597-.199v14.199h20v-16.593c4.949-3.099 8-8.565 8-14.407v-6h2v1c0 2.757 2.243 5 5 5 1.566 0 3.04-.753 3.979-2h.021c3.86 0 7-3.14 7-7s-3.14-7-7-7zm-13 16c0 5.324-2.875 10.296-7.501 12.977l-.499.289v15.734h-16v-12.394c2.43-.277 4.078-.602 4.196-.625l-.392-1.961c-.049.009-4.975.98-10.401.98-.001 0-.003 0-.004 0-2.977 0-5.399-2.424-5.399-5.403v-3.597c0-3.454-1.778-4.286-2.955-4.837-.845-.396-1.045-.514-1.045-1.163 0-.872.487-1.71 1.161-2.87 1.198-2.063 2.839-4.888 2.839-10.089 0-8.845 7.427-16.041 16.557-16.041 9.807 0 18.057 7.388 19.268 17h-4.825-1-1.055c-.778 0-1.473-.464-1.786-1.222-.303-.726-.143-1.551.409-2.102l1.455-1.456-4.244-4.244-1.456 1.456c-.552.551-1.378.71-2.141.393-.718-.297-1.182-.992-1.182-1.77v-2.055h-6v2.055c0 .778-.464 1.473-1.222 1.786-.727.302-1.551.143-2.102-.409l-1.456-1.455-4.244 4.244 1.456 1.456c.551.551.711 1.376.393 2.141-.297.718-.992 1.182-1.77 1.182h-2.055v6h2.055c.778 0 1.473.464 1.786 1.222.303.726.143 1.551-.409 2.102l-1.456 1.456 4.243 4.244 1.457-1.456c.551-.551 1.377-.71 2.141-.393.719.297 1.183.992 1.183 1.77v2.055h6v-2.055c0-.778.464-1.473 1.222-1.786.725-.302 1.551-.143 2.102.409l1.457 1.455 4.243-4.244-1.456-1.456c-.551-.551-.711-1.376-.393-2.141.297-.718.992-1.182 1.77-1.182h1.055 1 5zm-9.846-1.262.042.042-1.416 1.416-.042-.042c-1.127-1.128-2.811-1.458-4.318-.827-1.47.607-2.42 2.027-2.42 3.618v.055h-2v-.055c0-1.591-.95-3.012-2.452-3.631-1.478-.616-3.16-.286-4.287.84l-.042.042-1.416-1.416.042-.042c1.127-1.127 1.457-2.81.827-4.318-.606-1.47-2.026-2.42-3.617-2.42h-.055v-2h.055c1.591 0 3.012-.95 3.631-2.452.616-1.477.287-3.16-.84-4.287l-.042-.042 1.416-1.416.042.042c1.126 1.127 2.81 1.457 4.318.827 1.47-.606 2.42-2.027 2.42-3.618v-.054h2v.055c0 1.591.95 3.012 2.452 3.631 1.477.616 3.159.287 4.287-.84l.042-.042 1.416 1.416-.042.042c-1.127 1.127-1.457 2.81-.827 4.318.606 1.47 2.027 2.42 3.618 2.42h.054v2h-.055c-1.591 0-3.012.95-3.631 2.452-.616 1.477-.287 3.159.84 4.286zm22.846-2.738c-.152 0-.301-.01-.45-.023l-.64-.058-.318.558c-.546.954-1.514 1.523-2.592 1.523-1.654 0-3-1.346-3-3v-3h-11v-2h11v-3c0-1.654 1.346-3 3-3 1.078 0 2.046.569 2.592 1.523l.318.558.64-.058c.149-.013.298-.023.45-.023 2.757 0 5 2.243 5 5s-2.243 5-5 5zm0-8c-1.654 0-3 1.346-3 3s1.346 3 3 3 3-1.346 3-3-1.346-3-3-3zm0 4c-.551 0-1-.449-1-1s.449-1 1-1 1 .449 1 1-.449 1-1 1z" fill="url(#SVGID_1_)"/></svg>