<svg id="_x33_0" enable-background="new 0 0 64 64" height="512" viewBox="0 0 64 64" width="512" xmlns="http://www.w3.org/2000/svg" xmlns:xlink="http://www.w3.org/1999/xlink"><linearGradient id="SVGID_1_" gradientUnits="userSpaceOnUse" x1="32" x2="32" y1="63" y2="1"><stop offset="0" stop-color="#9f2fff"/><stop offset="1" stop-color="#0bb1d3"/></linearGradient><path d="m27 28c-1.654 0-3-1.346-3-3h2c0 .551.449 1 1 1s1-.449 1-1h2c0 1.654-1.346 3-3 3zm10 0c1.654 0 3-1.346 3-3h-2c0 .551-.449 1-1 1s-1-.449-1-1h-2c0 1.654 1.346 3 3 3zm-5 8c-2.206 0-4-1.794-4-4v-2h8v2c0 2.206-1.794 4-4 4zm0-2c1.103 0 2-.897 2-2h-4c0 1.103.897 2 2 2zm22 29h-44v-8.1c0-2.749.969-5.426 2.729-7.537 1.764-2.116 4.228-3.553 6.938-4.046l6.333-1.152v-3.789c-2.742-1.592-4.792-4.234-5.605-7.376h-.395c-2.206 0-4-1.794-4-4s1.794-4 4-4v-.414c-4.215-1.192-7.428-4.858-7.929-9.32-.352-3.13.642-6.262 2.726-8.594 2.087-2.334 5.077-3.672 8.203-3.672 2.935 0 5.695 1.143 7.771 3.217 1.151 1.15 2.664 1.783 4.259 1.783h9.97c1.302 0 2.402.839 2.816 2h.184c2.206 0 4 1.794 4 4s-1.794 4-4 4h-.184c-.414 1.161-1.514 2-2.816 2h-1v5c2.206 0 4 1.794 4 4s-1.794 4-4 4h-.395c-.813 3.142-2.863 5.784-5.605 7.376v3.789l6.332 1.152c2.711.493 5.175 1.93 6.939 4.046 1.76 2.112 2.729 4.788 2.729 7.537zm-16.809-18.949-3.213 1.927 4.444 2.54 1.279-4.011zm-8.847 16.949h7.312l-2.4-8h-2.512zm6.311-12.331-2.643-1.51-.012.007-.012-.007-2.643 1.51 1.253 2.331h2.804zm9.345-23.669v3c0 .338-.023.669-.051 1h.051c1.103 0 2-.897 2-2s-.897-2-2-2zm4-15v4c1.103 0 2-.897 2-2s-.897-2-2-2zm-3-2h-1v8h1c.551 0 1-.449 1-1v-6c0-.551-.449-1-1-1zm-5 8h2v-8h-2zm-17.898 4.956c2.672.261 5.299-.665 7.202-2.535 1.589-1.561 3.624-2.421 5.73-2.421h2.966v-3h-8.101c-.465 2.279-2.484 4-4.899 4h-.184c-.414 1.161-1.514 2-2.816 2-1.654 0-3-1.346-3-3s1.346-3 3-3c1.302 0 2.402.839 2.816 2h.184c1.654 0 3-1.346 3-3s-1.346-3-3-3h-.184c-.414 1.161-1.514 2-2.816 2-1.654 0-3-1.346-3-3s1.346-3 3-3c1.302 0 2.402.839 2.816 2h.184c2.414 0 4.434 1.721 4.899 4h8.101v-3h-2.97c-2.129 0-4.144-.841-5.672-2.368-1.699-1.697-3.957-2.632-6.358-2.632-2.558 0-5.004 1.096-6.711 3.005-1.73 1.936-2.522 4.435-2.23 7.038.469 4.181 3.852 7.509 8.043 7.913zm-.102-13.956c-.551 0-1 .449-1 1s.449 1 1 1 1-.449 1-1-.449-1-1-1zm0 8c-.551 0-1 .449-1 1s.449 1 1 1 1-.449 1-1-.449-1-1-1zm-1.949 14c-.028-.331-.051-.662-.051-1v-3c-1.103 0-2 .897-2 2s.897 2 2 2zm11.949 9c5.514 0 10-4.486 10-10v-10h-6.966c-1.578 0-3.115.656-4.329 1.848-2.068 2.033-4.834 3.151-7.718 3.151-.328 0-.657-.018-.987-.047v5.048c0 5.514 4.486 10 10 10zm-4 1.3v3.134l4 2.4 4-2.4v-3.134c-1.253.445-2.596.7-4 .7s-2.747-.255-4-.7zm-3.702 5.208 1.279 4.011 4.444-2.54-3.213-1.927zm-12.298 16.492h6v-8h2v8h6.256l2.667-8.891-1.315-2.448-3.185 1.82-2.109-6.613-2.289.416c-2.25.41-4.296 1.603-5.76 3.36-1.46 1.752-2.265 3.974-2.265 6.256zm40-6.1c0-2.282-.805-4.504-2.265-6.256-1.464-1.758-3.51-2.95-5.761-3.36l-2.288-.416-2.109 6.613-3.185-1.82-1.315 2.448 2.667 8.891h6.256v-8h2v8h6z" fill="url(#SVGID_1_)"/></svg>