<svg id="_x33_0" enable-background="new 0 0 64 64" height="512" viewBox="0 0 64 64" width="512" xmlns="http://www.w3.org/2000/svg" xmlns:xlink="http://www.w3.org/1999/xlink"><linearGradient id="SVGID_1_" gradientUnits="userSpaceOnUse" x1="32" x2="32" y1="63.944" y2=".586"><stop offset="0" stop-color="#9f2fff"/><stop offset="1" stop-color="#0bb1d3"/></linearGradient><path d="m22 53v2h2v2h-2v2h-2v-2h-2v-2h2v-2zm-19-28h2v-2h2v-2h-2v-2h-2v2h-2v2h2zm42-18v-2h2v-2h-2v-2h-2v2h-2v2h2v2zm-3 46v2h-2v2h2v2h2v-2h2v-2h-2v-2zm16-31c1.654 0 3 1.346 3 3s-1.346 3-3 3-3-1.346-3-3 1.346-3 3-3zm0 2c-.551 0-1 .449-1 1s.449 1 1 1 1-.449 1-1-.449-1-1-1zm-38-19c1.654 0 3 1.346 3 3s-1.346 3-3 3-3-1.346-3-3 1.346-3 3-3zm0 2c-.551 0-1 .449-1 1s.449 1 1 1 1-.449 1-1-.449-1-1-1zm-19 35c0-1.654 1.346-3 3-3 .556 0 1.07.162 1.517.427-.33-.743-.517-1.563-.517-2.427 0-2.987 2.196-5.464 5.057-5.918.42-3.65 3.304-6.555 6.943-7.012v-6.07c0-1.654-1.346-3-3-3h-3c-2.757 0-5-2.243-5-5v-5.586l-3.293 3.293-1.414-1.414 5.707-5.707 5.707 5.707-1.414 1.414-3.293-3.293v5.586c0 1.654 1.346 3 3 3h3c2.757 0 5 2.243 5 5v6.069c.44.055.871.15 1.292.276 1.069-2.222 2.712-4.036 4.708-5.308v-11.037c0-3.86 3.14-7 7-7s7 3.14 7 7v11.037c1.996 1.273 3.64 3.087 4.708 5.308.421-.126.852-.221 1.292-.276v-6.069c0-2.757 2.243-5 5-5h3c1.654 0 3-1.346 3-3v-5.586l-3.293 3.293-1.414-1.414 5.707-5.707 5.707 5.707-1.414 1.414-3.293-3.293v5.586c0 2.757-2.243 5-5 5h-3c-1.654 0-3 1.346-3 3v6.069c3.639.457 6.523 3.362 6.943 7.012 2.861.455 5.057 2.932 5.057 5.919 0 .864-.187 1.684-.517 2.427.447-.265.961-.427 1.517-.427 1.654 0 3 1.346 3 3s-1.346 3-3 3-3-1.346-3-3c0-.204.021-.403.06-.595-1.07.987-2.493 1.595-4.06 1.595h-6v3c0 1.654 1.346 3 3 3h3c2.757 0 5 2.243 5 5v5.586l3.293-3.293 1.414 1.414-5.707 5.707-5.707-5.707 1.414-1.414 3.293 3.293v-5.586c0-1.654-1.346-3-3-3h-3c-2.757 0-5-2.243-5-5v-3h-6v9.277l-7 11.667-7-11.667v-9.277h-6v3c0 2.757-2.243 5-5 5h-3c-1.654 0-3 1.346-3 3v5.586l3.293-3.293 1.414 1.414-5.707 5.707-5.707-5.707 1.414-1.414 3.293 3.293v-5.586c0-2.757 2.243-5 5-5h3c1.654 0 3-1.346 3-3v-3h-6c-1.567 0-2.99-.608-4.06-1.595.039.192.06.391.06.595 0 1.654-1.346 3-3 3s-3-1.346-3-3zm36-7h-4v15h4zm-7.434 21h4.868l2.4-4h-9.668zm1.434-21h-4v15h4zm1 25.056 1.234-2.056h-2.468zm27-18.056c0 .551.449 1 1 1s1-.449 1-1-.449-1-1-1-1 .449-1 1zm-22-24.007v-4.993h-4v4.037c1.401.106 2.746.437 4 .956zm-10-8.993v2h10v-2zm.101-2h9.798c-.465-2.279-2.485-4-4.899-4s-4.434 1.721-4.899 4zm-.101 10.993c1.254-.519 2.599-.85 4-.956v-4.037h-4zm-20 19.007c0 2.206 1.794 4 4 4h9c0-1.654-1.346-3-3-3v-2c2.757 0 5 2.243 5 5h3v-8h14v8h3c0-2.757 2.243-5 5-5v2c-1.654 0-3 1.346-3 3h9c2.206 0 4-1.794 4-4s-1.794-4-4-4c-.874 0-1.704.276-2.399.799l-1.201-1.6c.754-.566 1.615-.932 2.526-1.097-.436-2.882-2.923-5.102-5.926-5.102-1.575 0-3.072.621-4.189 1.712.111.414.189.84.189 1.288h-2c0-1.654-1.346-3-3-3-.863 0-1.685.372-2.255 1.021l-1.502-1.32c.95-1.081 2.319-1.701 3.757-1.701 1.569 0 2.954.741 3.871 1.875.318-.267.65-.515 1.003-.728-1.841-3.762-5.625-6.147-9.874-6.147s-8.033 2.385-9.874 6.147c.353.213.684.461 1.003.728.917-1.134 2.302-1.875 3.871-1.875 1.437 0 2.807.62 3.757 1.701l-1.502 1.32c-.57-.649-1.392-1.021-2.255-1.021-1.654 0-3 1.346-3 3h-2c0-.448.078-.874.189-1.288-1.117-1.091-2.614-1.712-4.189-1.712-3.003 0-5.49 2.22-5.925 5.103.912.164 1.772.53 2.526 1.097l-1.201 1.6c-.696-.524-1.526-.8-2.4-.8-2.206 0-4 1.794-4 4zm-4 5c0 .551.449 1 1 1s1-.449 1-1-.449-1-1-1-1 .449-1 1z" fill="url(#SVGID_1_)"/></svg>